<svg xmlns="http://www.w3.org/2000/svg" version="1.1" xmlns:xlink="http://www.w3.org/1999/xlink" xmlns:svgjs="http://svgjs.dev/svgjs" width="128" height="128" viewBox="0 0 128 128"><g transform="matrix(0.4703196347031963,0,0,0.4703196347031963,33.575309939257885,12.221578124999994)"><svg viewBox="0 0 56 96" data-background-color="#000000" preserveAspectRatio="xMidYMid meet" height="219" width="128" xmlns="http://www.w3.org/2000/svg" xmlns:xlink="http://www.w3.org/1999/xlink"><g id="tight-bounds" transform="matrix(1,0,0,1,0.3016079266490692,0.25950000000000273)"><svg viewBox="0 0 55.39678414670186 95.481" height="95.481" width="55.39678414670186"><g><svg viewBox="0 0 55.39678414670186 95.481" height="95.481" width="55.39678414670186"><g><svg viewBox="0 0 55.39678414670186 95.481" height="95.481" width="55.39678414670186"><g id="textblocktransform"><svg viewBox="0 0 55.39678414670186 95.481" height="95.481" width="55.39678414670186" id="textblock"><g><svg viewBox="0 0 55.39678414670186 95.481" height="95.481" width="55.39678414670186"><g><svg viewBox="0 0 55.39678414670186 95.481" height="95.481" width="55.39678414670186"><g><svg xmlns="http://www.w3.org/2000/svg" xmlns:xlink="http://www.w3.org/1999/xlink" version="1.1" x="0" y="0" viewBox="21.679106830508616 1 56.85827385947762 98" enable-background="new 0 0 100 100" xml:space="preserve" height="95.481" width="55.39678414670186" class="icon-icon-0" data-fill-palette-color="accent" id="icon-0"></svg></g></svg></g></svg></g></svg></g></svg></g><g></g></svg></g><defs></defs><mask id="8f6b90ae-2293-4572-b813-783abd9d706f"><g id="SvgjsG4071"><svg viewBox="0 0 55.39678414670186 95.481" height="95.481" width="55.39678414670186"><g><svg viewBox="0 0 55.39678414670186 95.481" height="95.481" width="55.39678414670186"><g><svg viewBox="0 0 55.39678414670186 95.481" height="95.481" width="55.39678414670186"><g id="SvgjsG4070"><svg viewBox="0 0 55.39678414670186 95.481" height="95.481" width="55.39678414670186" id="SvgjsSvg4069"><g><svg viewBox="0 0 55.39678414670186 95.481" height="95.481" width="55.39678414670186"><g><svg viewBox="0 0 55.39678414670186 95.481" height="95.481" width="55.39678414670186"><g><svg xmlns="http://www.w3.org/2000/svg" xmlns:xlink="http://www.w3.org/1999/xlink" version="1.1" x="0" y="0" viewBox="21.679106830508616 1 56.85827385947762 98" enable-background="new 0 0 100 100" xml:space="preserve" height="95.481" width="55.39678414670186" class="icon-icon-0" data-fill-palette-color="accent" id="SvgjsSvg4068"><g fill="white"><path fill-rule="evenodd" clip-rule="evenodd" d="M30.545 28.822C29.38 36.039 30.875 43.672 37.045 47.863 30.758 19.81 45.756 8.664 59.646 1 43.466 24.046 76.542 24.644 78.423 51.13 80.028 73.71 64.507 91.317 46.639 99 46.845 76.175 24.089 73.067 21.801 54.397 20.905 47.094 25.062 33.766 30.545 28.822" fill="white"></path></g></svg></g></svg></g></svg></g></svg></g></svg></g><g></g></svg></g><defs><mask></mask></defs></svg><rect width="55.39678414670186" height="95.481" fill="black" stroke="none" visibility="hidden"></rect></g></mask><linearGradient x1="0" x2="1" y1="0.5" y2="0.5" id="728642a6-0c02-4b26-9ed0-76268a0d10dc"><stop stop-color="#f00b51" offset="0"></stop><stop stop-color="#730062" offset="1"></stop></linearGradient><rect width="55.39678414670186" height="95.481" fill="url(#728642a6-0c02-4b26-9ed0-76268a0d10dc)" mask="url(#8f6b90ae-2293-4572-b813-783abd9d706f)" data-fill-palette-color="accent"></rect></svg><rect width="55.39678414670186" height="95.481" fill="none" stroke="none" visibility="hidden"></rect></g></svg></g></svg>